<svg id="Layer_1" data-name="Layer 1" xmlns="http://www.w3.org/2000/svg" xmlns:xlink="http://www.w3.org/1999/xlink" viewBox="0 0 1261.61 303.58"><defs><style>.cls-1{fill:url(#linear-gradient);}.cls-2{fill:#231f20;}.cls-3{fill:url(#linear-gradient-2);}</style><linearGradient id="linear-gradient" x1="205.53" y1="637.01" x2="-51.4" y2="893.93" gradientTransform="matrix(1, 0, 0, -1, 0, 935.67)" gradientUnits="userSpaceOnUse"><stop offset="0" stop-color="#cfad00"/><stop offset="0.37" stop-color="#dec50b"/><stop offset="1" stop-color="#fdf621"/></linearGradient><linearGradient id="linear-gradient-2" x1="754.83" y1="726.92" x2="1278.59" y2="726.92" xlink:href="#linear-gradient"/></defs><title>EOS SWAP HORIZONTAL</title><path class="cls-1" d="M118.88,342.91l-98.49-58.1h0l-.92-.55L17,282.79l.68-2.93.1-.43h0L51.83,134.12l.26-.36,66.79-94.43,68.26,94.86,33.45,145.29h0l.14.61.63,2.74-2.21,1.3-1.15.67h0ZM140.06,284,125,331.34,205.15,284ZM33.43,284l79.46,47.35L98.05,284ZM106,284l13,43.27L132.64,284Zm36.31-7h68.27l-33.29-57.51-10.77-18.57Zm-39.1,0H135l26.81-84.28-42.85-74.05-42.28,73.4ZM28,277H95.86L72.11,201Zm155.24-61.06L209,260.19l-25.7-111.54L169.55,192.2ZM55.39,148.65,29.93,259.14l39-67.64Zm67-37.88,42.21,72.93L179.81,136,122.4,56.19ZM59.09,136l14.7,47,41.64-72.28,0-54.35Z" transform="translate(-16.98 -39.33)"/><polygon class="cls-2" points="248.5 245.81 320.41 245.81 320.41 230.03 265.03 230.03 265.03 192.11 302.28 192.11 302.28 176.34 265.03 176.34 265.03 109.49 322.56 109.49 322.56 93.71 248.5 93.71 248.5 245.81"/><path class="cls-2" d="M488.59,138.38a76.3,76.3,0,0,0-40-7.38c-21.54,1.65-39.67,10.84-53.88,27.34s-20.61,35.51-19,56.49a77.6,77.6,0,0,0,5.07,22.55l.41-.22,12.68-12.71a67.43,67.43,0,0,1-1.65-10.51c-1.32-17.29,3.56-32.15,14.93-45.47s25.28-20.42,42.56-21.74,32.08,3.59,45.27,15a68.25,68.25,0,0,1,9.17,9.61v-.17l-.74-61.65Z" transform="translate(-16.98 -39.33)"/><path class="cls-2" d="M528,184.38l-13.1,13.12a68.55,68.55,0,0,1,1.56,10.17c1.32,17.29-3.56,32.2-14.93,45.58s-25.24,20.5-42.45,21.82-32-3.63-45.27-15.11a69.28,69.28,0,0,1-9.07-9.45l.73,61.76,14.73-28.84a71.91,71.91,0,0,0,38.57,7.48l2.83-.21c21.07-1.62,38.83-10.93,52.77-27.7s20.14-35.88,18.53-57a78,78,0,0,0-4.76-21.73Z" transform="translate(-16.98 -39.33)"/><path class="cls-3" d="M1059.74,134.06h-6.26L993.36,271,965.5,206.41l31.27-72.35h-6.46L962.09,199,934.75,134.3l-.11-.24h-8l31.06,72.56-27.27,63.76L871.56,134.3l-.11-.24H863.2L929,286.7l.36.86,31.69-73,31.7,73,66.74-152.94Zm57.4-4.11,75.39,154.4h-7.88l-.11-.22-28.19-56.78h-79.43l-27.9,57h-7.08Zm36.42,90.8-37-75.22-36.63,75.22Zm125-38.46c0,13-5.11,24.25-15.18,33.59s-21.32,14.06-33.46,14.06h-1.19v54.41h-7.38V134.05h7a49.21,49.21,0,0,1,35.57,14.37C1273.65,158,1278.59,169.35,1278.59,182.29Zm-19.73,29c8.19-8.13,12.34-17.88,12.34-29s-4.22-20.95-12.53-29.2-18-12.44-28.72-12.44h-1.19v82.91H1230C1241,223.55,1250.67,219.43,1258.86,211.31ZM836.08,245.6q0,11.46-5.16,18.9a42.92,42.92,0,0,1-14,12.57,62,62,0,0,1-18.73,7,103.62,103.62,0,0,1-21,2.11q-6.66,0-13.45-.39c-4.52-.26-7.82-.41-9-.56v-7.94q1.77.22,7.83.84c4,.41,9.1.62,15.17.62A91.82,91.82,0,0,0,796.4,277a52.56,52.56,0,0,0,15.23-5.54,33.33,33.33,0,0,0,11.83-10.69q3.94-6.15,3.95-15.13a29.19,29.19,0,0,0-4.67-15.23q-4.66-7.66-18.57-14.78-3.33-1.77-9.33-4.23t-9.23-4q-13.9-6.66-20.74-14.73T758,172.69a31.2,31.2,0,0,1,4.23-16.45,39.7,39.7,0,0,1,11.11-11.9,54.43,54.43,0,0,1,16.9-7.83,72.32,72.32,0,0,1,20.12-2.83q6.44,0,13.06.39c4.41.25,7.54.49,8.13.55l0,7.84c-1.34-.23-4-.5-8-.84s-8.44-.5-13.34-.5a65.6,65.6,0,0,0-16.39,2.16,47.8,47.8,0,0,0-15.29,6.92,31.88,31.88,0,0,0-8.23,8.87,26.31,26.31,0,0,0,.83,28.12q4.5,6.39,17.73,12.83c2.29,1.11,5.23,2.41,8.78,3.9s6.82,2.92,9.78,4.33q14.22,6.88,21.39,16.57A34.07,34.07,0,0,1,836.08,245.6Z" transform="translate(-16.98 -39.33)"/><path class="cls-2" d="M650.05,225.18c-3.39-5.48-9-10.54-16.74-15-4.88-2.79-10.44-5.61-16.53-8.37s-11-5.26-14.91-7.49c-5.88-3.41-10.09-7.06-12.51-10.83a22.38,22.38,0,0,1-3.6-12.27,21.34,21.34,0,0,1,3.11-11.32,26.83,26.83,0,0,1,9.44-8.94,40.92,40.92,0,0,1,13.06-4.64,97.48,97.48,0,0,1,17.44-1.38c4.64,0,9,.06,12.93.15s6.83.2,8.94.29l1.78.09-.16-12.6-2-.17c-1.22-.1-3.59-.23-7-.38s-7.83-.22-13-.22a111.13,111.13,0,0,0-22.35,2,55.57,55.57,0,0,0-16,5.58c-6.83,3.88-12,8.55-15.4,13.88a34.23,34.23,0,0,0-5.14,18.65,33.86,33.86,0,0,0,5.68,19.21,45.69,45.69,0,0,0,15,13.9,178.68,178.68,0,0,0,17.82,9.05A137.93,137.93,0,0,1,626,222.68,36.1,36.1,0,0,1,637.09,233a21.49,21.49,0,0,1,3.74,12.09c0,5.64-1.36,10.26-4.05,13.71a36.77,36.77,0,0,1-11.9,9.52c-2.68,1.48-7.3,2.74-13.71,3.75a120.48,120.48,0,0,1-18.74,1.54c-5.1,0-9.76-.13-13.85-.36s-7.24-.47-9.28-.67l-1.81-.17-.26,12.94,2,.2c2,.2,5.19.42,9.86.68s8.6.38,12,.38a121.44,121.44,0,0,0,26-2.56,57.36,57.36,0,0,0,19.53-7.8A44.46,44.46,0,0,0,650.39,262a36.09,36.09,0,0,0,4.75-18.37A34.12,34.12,0,0,0,650.05,225.18Z" transform="translate(-16.98 -39.33)"/></svg>
